PathFileType	4	(X/Y/Z)	E:\Studenten\Marcel_BSc\Ayumi_25_09_2024\25-09-2024\static_00.trc
DataRate	CameraRate	NumFrames	NumMarkers	Units	OrigDataRate	OrigDataStartFrame	OrigNumFrames
200.0	200.0	4	62	mm	200.0	185	295	
Frame#	Time	LASI			RASI			RSACR			LSACR			USACR			LBAR			RBAR			RHEE			RMT1			RMT5			RMT2			LHEE			LMT1			LMT5			LMT2			LMMAL			LMFC			LLFC			LLMAL			LTIB4			LTIB2			LTIB3			LTIB1			RMMAL			RMFC			RLFC			RLMAL			RTIB1			RTIB2			RTIB3			RTHI1			RTHI4			RTHI3			RTHI2			LTHI1			LTHI4			LTHI3			LTHI2			FHD			LBHD			RBHD			C7			T10			CLAV			LSHO			RSHO			LRAD			LUL			LRFIN			RRAD			RUL			RUFIN			RLEP			RMEP			LLEP			LMEP			LDUPA			LMUPA			LUUPA			RDUPA			RUUPA			RMUPA			
		X1	Y1	Z1	X2	Y2	Z2	X3	Y3	Z3	X4	Y4	Z4	X5	Y5	Z5	X6	Y6	Z6	X7	Y7	Z7	X8	Y8	Z8	X9	Y9	Z9	X10	Y10	Z10	X11	Y11	Z11	X12	Y12	Z12	X13	Y13	Z13	X14	Y14	Z14	X15	Y15	Z15	X16	Y16	Z16	X17	Y17	Z17	X18	Y18	Z18	X19	Y19	Z19	X20	Y20	Z20	X21	Y21	Z21	X22	Y22	Z22	X23	Y23	Z23	X24	Y24	Z24	X25	Y25	Z25	X26	Y26	Z26	X27	Y27	Z27	X28	Y28	Z28	X29	Y29	Z29	X30	Y30	Z30	X31	Y31	Z31	X32	Y32	Z32	X33	Y33	Z33	X34	Y34	Z34	X35	Y35	Z35	X36	Y36	Z36	X37	Y37	Z37	X38	Y38	Z38	X39	Y39	Z39	X40	Y40	Z40	X41	Y41	Z41	X42	Y42	Z42	X43	Y43	Z43	X44	Y44	Z44	X45	Y45	Z45	X46	Y46	Z46	X47	Y47	Z47	X48	Y48	Z48	X49	Y49	Z49	X50	Y50	Z50	X51	Y51	Z51	X52	Y52	Z52	X53	Y53	Z53	X54	Y54	Z54	X55	Y55	Z55	X56	Y56	Z56	X57	Y57	Z57	X58	Y58	Z58	X59	Y59	Z59	X60	Y60	Z60	X61	Y61	Z61	X62	Y62	Z62	
185	0.92	133.7659	918.20502	-761.8833	129.46634	918.82703	-984.401	309.19968	950.08942	-912.27039	308.17642	953.33984	-852.46497	297.53085	966.48804	-882.22845	1270.8383	26.299429	346.48975	1226.4303	26.265148	-1876.9567	323.05426	39.831974	-1019.6632	128.16975	43.452202	-1043.3165	164.99635	34.995647	-1113.7859	140.17772	42.702759	-1079.963	326.24164	45.82682	-745.16486	134.38429	46.338737	-736.44293	169.96434	33.416023	-662.78345	143.15985	45.925312	-698.03186	276.67661	72.962646	-778.67438	232.76547	456.95197	-828.96613	219.18904	453.98862	-721.32892	278.78864	69.127014	-700.97119	290.25949	209.6087	-691.42285	313.90872	270.90683	-691.38922	263.42517	268.15408	-684.46954	301.5993	314.32184	-687.01117	275.16638	68.343857	-994.07373	235.19519	446.54111	-935.27576	220.4491	461.31064	-1041.1571	284.66333	72.255295	-1068.5881	257.01556	319.28693	-1082.6503	307.44388	314.02914	-1077.1177	276.50443	256.16672	-1081.278	241.56383	783.82251	-1059.9326	242.66086	635.12036	-1064.4602	191.26392	636.99683	-1066.4382	218.97125	696.98309	-1070.0135	238.46277	778.89215	-698.56793	236.39966	646.56842	-694.93292	185.6761	637.49426	-693.02972	200.10236	701.22101	-689.13806	130.77957	1593.1449	-775.85022	241.54474	1576.0505	-786.8584	253.0325	1571.2107	-910.32336	263.16769	1391.3292	-858.13141	285.5513	1007.4641	-877.32635	140.83815	1328.1562	-872.92523	244.82661	1380.8668	-725.42084	236.7787	1396.7457	-986.99286	166.66606	1359.6726	-222.77209	207.29286	1355.1261	-222.49638	153.47778	1339.1512	-130.76068	241.00024	1389.3485	-1500.8016	287.90027	1383.131	-1499.9419	235.24551	1391.6006	-1590.9773	293.21585	1329.7704	-1271.5208	254.88084	1296.2965	-1272.0446	222.00085	1300.9573	-454.18643	181.04034	1278.5924	-466.79074	238.09995	1354.4509	-506.3175	202.18152	1372.0521	-536.84235	239.11459	1362.8792	-585.51343	266.31964	1382.2286	-1205.9108	257.08936	1383.8997	-1144.203	216.05589	1385.4188	-1212.4265
186	0.925	133.77397	918.19885	-761.89697	129.48405	918.82458	-984.4046	309.22046	950.08911	-912.2616	308.2056	953.34943	-852.46503	297.54807	966.479	-882.22546	1270.8374	26.299583	346.48746	1226.416	26.291887	-1876.9641	323.05643	39.833004	-1019.6404	128.16608	43.452614	-1043.3265	165.00317	34.998077	-1113.785	140.17659	42.705616	-1079.9641	326.24603	45.820999	-745.16083	134.38341	46.339386	-736.44702	169.97179	33.419445	-662.7851	143.15958	45.921906	-698.03156	276.68188	72.959274	-778.67987	232.76979	456.94482	-828.96826	219.19174	453.98923	-721.33502	278.79196	69.134529	-700.97473	290.25461	209.60689	-691.43079	313.86017	270.95834	-691.37988	263.36908	268.13062	-684.39435	301.6059	314.29327	-687.02032	275.17172	68.343956	-994.07587	235.19157	446.54388	-935.27875	220.46918	461.30835	-1041.1591	284.65836	72.250671	-1068.5934	257.01984	319.27936	-1082.6644	307.46634	314.02219	-1077.1215	276.51434	256.15326	-1081.2784	241.5733	783.82184	-1059.936	242.68785	635.10968	-1064.4772	191.27609	636.99023	-1066.4714	218.98737	696.97229	-1070.02	238.45963	778.89575	-698.57434	236.38814	646.55505	-694.95026	185.69592	637.49207	-693.02399	200.12677	701.21844	-689.14203	130.82043	1593.1393	-775.85211	241.5433	1576.0648	-786.85529	253.04323	1571.2039	-910.32281	263.1694	1391.3264	-858.1203	285.57071	1007.4724	-877.32745	140.83768	1328.147	-872.91718	244.84784	1380.8705	-725.40918	236.78198	1396.7521	-986.98853	166.66817	1359.6599	-222.77174	207.30035	1355.1116	-222.49199	153.46739	1339.1606	-130.76805	241.01082	1389.3682	-1500.7986	287.9097	1383.1343	-1499.9371	235.25511	1391.6157	-1590.9619	293.21039	1329.7742	-1271.5189	254.88287	1296.3064	-1272.0393	221.99875	1300.9572	-454.1853	181.05765	1278.5839	-466.78503	238.11174	1354.4601	-506.30396	202.18451	1372.0459	-536.83173	239.11185	1362.8961	-585.50073	266.32489	1382.2396	-1205.9055	257.09885	1383.8988	-1144.1915	216.06192	1385.425	-1212.4202
187	0.93	133.78236	918.19885	-761.90137	129.50984	918.82104	-984.40887	309.23056	950.09479	-912.26044	308.21335	953.35803	-852.45038	297.56842	966.48627	-882.21417	1270.8231	26.29331	346.53973	1226.4323	26.277843	-1876.9709	323.04782	39.838505	-1019.6498	128.17653	43.444992	-1043.324	165.07246	34.827065	-1113.6726	140.17982	42.705635	-1079.9634	326.23822	45.826027	-745.1579	134.38568	46.339027	-736.44501	169.96394	33.420815	-662.78937	143.1678	45.920177	-698.03168	276.68808	72.9608	-778.67712	232.78006	456.94852	-828.97852	219.19579	453.99219	-721.33698	278.7851	69.118347	-700.96509	290.25723	209.60522	-691.43097	313.90826	270.90643	-691.40167	263.35574	268.12952	-684.40302	301.60355	314.28668	-687.0249	275.17813	68.344482	-994.06891	235.20848	446.53958	-935.2782	220.4823	461.3067	-1041.1555	284.65079	72.249962	-1068.5852	257.03348	319.28055	-1082.6487	307.4733	314.02167	-1077.1146	276.51297	256.15204	-1081.2828	241.59486	783.82324	-1059.9375	242.70915	635.12189	-1064.469	191.3022	637.00208	-1066.4512	219.04869	696.97675	-1070.0156	238.46199	778.89587	-698.57178	236.38467	646.56201	-694.94757	185.69855	637.50287	-693.00861	200.1378	701.21924	-689.13507	130.81551	1593.1453	-775.8493	241.53242	1576.0542	-786.85541	253.03912	1571.1952	-910.32111	263.17181	1391.3378	-858.11835	285.58606	1007.465	-877.32281	140.8398	1328.1389	-872.91425	244.84445	1380.8772	-725.40228	236.78682	1396.7521	-986.98065	166.66876	1359.6483	-222.76648	207.29816	1355.1138	-222.48276	153.43637	1339.2627	-130.67999	241.0217	1389.3817	-1500.7883	287.90948	1383.1511	-1499.9354	235.25966	1391.6237	-1590.9551	293.20755	1329.7755	-1271.5115	254.89235	1296.311	-1272.0323	222.00539	1300.9553	-454.17978	181.063	1278.58	-466.77533	238.10025	1354.4487	-506.30887	202.19362	1372.045	-536.8396	239.12207	1362.8655	-585.50977	266.33508	1382.2374	-1205.8964	257.11197	1383.9099	-1144.1814	216.12477	1385.3525	-1212.3649
188	0.935	133.79561	918.19922	-761.90253	129.5215	918.82318	-984.41229	309.24924	950.09375	-912.25867	308.23819	953.36029	-852.45172	297.58023	966.48444	-882.21539	1270.8301	26.293127	346.47058	1226.4205	26.278774	-1876.9741	323.05252	39.837101	-1019.6423	128.16826	43.446884	-1043.3247	165.00319	34.995609	-1113.7942	140.17227	42.707996	-1079.9612	326.24146	45.822014	-745.15497	134.39084	46.334038	-736.4455	169.95561	33.429485	-662.78851	143.1673	45.921501	-698.03815	276.67465	72.963928	-778.68469	232.8075	456.9404	-828.96912	219.21103	453.99689	-721.34363	278.79401	69.126839	-700.9679	290.25677	209.60059	-691.42645	313.90665	270.89398	-691.38251	263.43015	268.14795	-684.47485	301.59402	314.31754	-687.00696	275.18497	68.344086	-994.07867	235.22353	446.53772	-935.28656	220.48911	461.314	-1041.171	284.66199	72.24894	-1068.5876	257.0481	319.27646	-1082.6537	307.50085	314.02347	-1077.1056	276.53821	256.16187	-1081.2842	241.62625	783.82684	-1059.9369	242.72543	635.11597	-1064.4476	191.32686	637.00348	-1066.4948	219.03621	696.99139	-1070.0327	238.46031	778.89465	-698.56281	236.39714	646.57294	-694.92889	185.70784	637.50354	-693.01355	200.13902	701.22015	-689.13867	130.81677	1593.1642	-775.84839	241.55128	1576.0514	-786.85852	253.04007	1571.1849	-910.32373	263.16995	1391.3513	-858.11957	285.59937	1007.4769	-877.32117	140.83524	1328.1394	-872.91034	244.84712	1380.8765	-725.3988	236.7883	1396.7578	-986.97656	166.66338	1359.6334	-222.75893	207.29398	1355.0979	-222.47517	153.43884	1339.1593	-130.76105	241.01968	1389.3822	-1500.7805	287.92349	1383.1613	-1499.9303	235.27177	1391.629	-1590.9479	293.21695	1329.7848	-1271.5027	254.87488	1296.3286	-1272.0308	222.0154	1300.9489	-454.1658	181.07269	1278.5743	-466.7742	238.10406	1354.4423	-506.2952	202.18637	1372.0372	-536.82336	239.14871	1362.8455	-585.4917	266.32849	1382.2501	-1205.8939	257.12454	1383.9116	-1144.1713	216.13445	1385.3644	-1212.3503
